# xmcd
#
# Track frame offsets:
#	150
#	14311
#	25831
#	39162
#	53138
#	72701
#	86075
#	97393
#	116257
#	131138
#	149201
#	161885
#	177919
#	194798
#	213578
#
# Disc length: 3033 seconds
#
# Revision: 1
# Processed by: cddbd v1.5.1PL2 Copyright (c) Steve Scherf et al.
# Submitted via: audiograbber 1.83.01
#
DISCID=ec0bd70f
DTITLE=Various Artist - To: Kate - A Benefit For Kate's Sake
DYEAR=2005
DGENRE=
TTITLE0=BR549 - The Christmas Song
TTITLE1=Jim Lauderdale - Holly and Her Mistletoe
TTITLE2=Buddy and Julie Miller - Away In A Manger
TTITLE3=The Big Happy - Gift Wrapped Boy
TTITLE4=Bob Delevante - Half Bad In The Snow
TTITLE5=John Corbett - Ain't No Trouble To Me
TTITLE6=Joe Ely - Winterlude
TTITLE7=Jason and The Scorchers - Oh! Holy Night
TTITLE8=Raul Malo - Pretty Paper
TTITLE9=Steve Earle and Allison Moorer - Nothing But A Child
TTITLE10=Henry Gross - What A Christmas
TTITLE11=Rosie Flores - Christmas Everyday
TTITLE12=John Prine - I'll Be Home For Christmas
TTITLE13=Jeff Black - Winter Wonderland
TTITLE14=Olivia Tallent - Gift Wrapped Boy
EXTD=
EXTT0=
EXTT1=
EXTT2=
EXTT3=
EXTT4=
EXTT5=
EXTT6=
EXTT7=
EXTT8=
EXTT9=
EXTT10=
EXTT11=
EXTT12=
EXTT13=
EXTT14=
PLAYORDER=
